<svg xmlns="http://www.w3.org/2000/svg" width="19.3" height="19.3" viewBox="0 0 19.3 19.3">
  <path id="coin_white" data-name="coin white" d="M9.65,0A9.65,9.65,0,1,0,19.3,9.65,9.65,9.65,0,0,0,9.65,0Zm2.772,13.454a3.1,3.1,0,0,1-1.608,1.032.447.447,0,0,0-.389.512c.016.29,0,.568,0,.854a.354.354,0,0,1-.381.4c-.163,0-.326.008-.488.008-.143,0-.286,0-.429,0a.369.369,0,0,1-.4-.421c0-.207,0-.417,0-.623,0-.461-.02-.477-.461-.548a5.853,5.853,0,0,1-1.636-.469c-.405-.2-.449-.3-.334-.727.087-.318.175-.635.274-.949.071-.23.139-.334.262-.334a.7.7,0,0,1,.286.1,5.3,5.3,0,0,0,1.819.544,2.914,2.914,0,0,0,.322.02,2.144,2.144,0,0,0,.87-.179.925.925,0,0,0,.222-1.624,2.9,2.9,0,0,0-.679-.4,15.9,15.9,0,0,1-1.859-.834A2.627,2.627,0,0,1,6.322,7.3,2.769,2.769,0,0,1,8.347,4.734c.5-.179.5-.175.5-.691,0-.175,0-.349,0-.528.012-.389.075-.457.465-.469h.453c.739,0,.739.032.743.83,0,.588,0,.588.588.679a5.171,5.171,0,0,1,1.287.385.374.374,0,0,1,.242.5c-.1.357-.2.719-.314,1.072-.071.214-.139.314-.266.314a.638.638,0,0,1-.27-.083,4.06,4.06,0,0,0-1.8-.413c-.079,0-.163,0-.242.008a1.6,1.6,0,0,0-.544.111A.771.771,0,0,0,9,7.823a3.6,3.6,0,0,0,.886.5A15.967,15.967,0,0,1,11.5,9.05,2.906,2.906,0,0,1,12.422,13.454Z" fill="#fff"/>
</svg>
