<svg xmlns="http://www.w3.org/2000/svg" width="37.025" height="15.951" viewBox="0 0 37.025 15.951">
  <g id="g8" transform="translate(0)">
    <g id="g10" transform="translate(0 0)">
      <path id="path12" d="M36.187-143.039H32.47a1.223,1.223,0,0,0-1.221,1.221v3.2A1.223,1.223,0,0,0,32.47-137.4h3.717a1.223,1.223,0,0,0,1.221-1.221v-3.2A1.223,1.223,0,0,0,36.187-143.039Zm-13.655-4.21h-.457v-.08c.125,0,.2-.024.149-.134-.084-.166.281-.157.335-.121C22.654-147.521,22.592-147.337,22.531-147.249Zm-.625.111h.554c-.061.093-.234.407-.346.408a1.132,1.132,0,0,1-.209-.408Zm10.583,5.319h3.677v3.2H32.49Zm-7.547,0H30.06a1.223,1.223,0,0,0-1.221-1.221H24.911a1.223,1.223,0,0,0-1.221,1.221v3.2a1.223,1.223,0,0,0,1.221,1.221H28.84a1.223,1.223,0,0,0,1.221-1.221v-2.112H25.907a.945.945,0,0,0,.943.943H28.9v1.169H24.943Zm-15.98,0h4.885a1.223,1.223,0,0,0-1.221-1.221H8.847a1.223,1.223,0,0,0-1.221,1.221v.99a1.223,1.223,0,0,0,1.221,1.221h3.791v.99H7.626A1.223,1.223,0,0,0,8.847-137.4h3.907a1.223,1.223,0,0,0,1.221-1.221v-.99a1.223,1.223,0,0,0-1.221-1.221H8.963Zm-7.034,0H6.541a1.223,1.223,0,0,0-1.221-1.221H1.6a1.223,1.223,0,0,0-1.221,1.221v3.2A1.223,1.223,0,0,0,1.6-137.4H5.32a1.223,1.223,0,0,0,1.221-1.221H1.929ZM23.706-147.8a.327.327,0,0,1-.091.032c-.174.247-.069.218-.377.424a2.284,2.284,0,0,0,.109.824.03.03,0,0,1,0,.025.031.031,0,0,1-.02.015c-.074.016-.181.043-.243.055a1.581,1.581,0,0,1,0,.421,2.172,2.172,0,0,1-.859.9c-.215.042-.456-.148-.832-.313-.1-.045-.451-.274-.633-.335-.151-.05-.3.317-.115.416.087.046.227.108.271.222a3.121,3.121,0,0,1-.289,1.9c-.128,0-.235-.118-.33-.087-.169.093-.062.61,0,.7,1.041,1.07.917,1.863,1.359,2.455.2,0,.069.213.222.464a.949.949,0,0,1-.034.431v.323l-.034.1v.283c-.031.138-.065.322-.094.451-.062.271.177.482.034.74,0,.159,0,.127-.094.256a5.174,5.174,0,0,0,0,.949,2.835,2.835,0,0,0,.619.72c.28.125.692.1.558.538-.819.251-1.341-.142-1.777-.148l-.02.075a1.853,1.853,0,0,1-.563-.089,6.753,6.753,0,0,1,.121-.747l.094-.148a9.546,9.546,0,0,0-.04-1.016c-.174-.128-.208-.519-.208-.733a2.506,2.506,0,0,1-.06-.579,1.068,1.068,0,0,1-.027-.377c.026-.087.124-.124.148-.2v-.242c.046-.255.032-.372-.121-.525-.383,0-.436.023-.646-.3-.065-.1-.6-.946-.652-.969-.446-.194-.357-.119-.552-.464a.455.455,0,0,0-.231.2,7.5,7.5,0,0,0-.522,1.284c-.045.151,0,.319-.067.444-.049.091-.208.12-.242.182-.156.281-.039.259-.336.457a1.339,1.339,0,0,0-.094.256l-.067.094c-.05.107.053.3.034.37a4.885,4.885,0,0,1-.188.518c-.136.323-.119.753-.256.951-.069.1-.236,0-.363.084-.007.069-.209.531-.249.659v.733c.038.124.142.241.111.4s-.612.164-.927.119c-.21-.03-.274-.185-.27-.365,0-.212.432-1.587.406-1.679-.325-.366.087-.742.209-1.083.059-.166.023-.4.087-.552l.343-.626c.209-.2.116-.207.229-.383.1-.153.217-.256.148-.491-.139-.472.162-1.141.182-1.635-.053-.056-.234-.038-.257-.189a1.418,1.418,0,0,1,.216-.9c.044-.023.1,0,.135-.027,0-.23-.229-1.509-.055-1.574.107-.04.353-.061.4-.082,0-.055-.04-.171-.085-.177-.076-.011-.233-.04-.357-.069-.382-.088-.029-1.6-.024-1.6.105-.139.593.048.653-.188.163-.208-.126-1.009.431-2,.188-.333.548-.669.968-.527.141.048.055.25.3.034a.9.9,0,0,0-.087-.336c-.411-1.227.982-1.892,1.958-1.191a.991.991,0,0,1,.256.128c.054.278.329.772.054,1.1a1.02,1.02,0,0,0-.336.148.985.985,0,0,0,.034.283c.018.06.054.084-.037.121-.011,0-.007.042,0,.056a1.152,1.152,0,0,0,.623-.1h.182v-.229h.087v-.179H21.6v.31h.227v.1h3.363v.175h.149v-.639h.125v.52h.286v.3h.89v-.088h.148v.039h.421v.247H26.79v.039h-.148v-.088h-.89v.088H25.36v-.06h-.168v.18H23.706" transform="translate(-0.383 150.527)" fill="#ccc" fill-rule="evenodd"/>
    </g>
  </g>
</svg>
