<svg xmlns="http://www.w3.org/2000/svg" width="18.035" height="18.229" viewBox="0 0 18.035 18.229">
  <g id="XMLID_1_" transform="translate(-6.605)">
    <path id="Subtraction_1" data-name="Subtraction 1" d="M7.734,18.229h0L7.3,17.52h0a1.457,1.457,0,0,1-.524.117.566.566,0,0,1-.432-.164s-.055.009-.08.17c-.046,0-.275-.046-.389-.41a.2.2,0,0,0-.092.072.408.408,0,0,0-.033.337s0,0-.009-.009a.885.885,0,0,1-.221-.366l-.16.169.115.135-.055.07s-.2-.2-.31-.2a.075.075,0,0,0-.035.008l.01.149-.1.035-.135-.205s-.15.081-.159.2l-.055-.08-.08.055h-.1s-.035-.229-.09-.264l-.055.149h-.2V17.35l-.195.135a.263.263,0,0,0-.034,0,.229.229,0,0,0-.241.187L3.5,17.615a.546.546,0,0,0-.07-.345h0a.063.063,0,0,0-.023,0c-.04,0-.108.032-.127.244a.145.145,0,0,1-.041.006c-.044,0-.123-.022-.153-.166h-.1l.025.284s-.046-.159-.374-.159a1.287,1.287,0,0,0-.15.009c-.011,0-.048,0-.1,0-.167,0-.453-.02-.5-.152l-.045.284a.142.142,0,0,0-.036-.065.207.207,0,0,0-.154-.053A.888.888,0,0,0,1.3,17.6l-.115-.01.01-.15h-.07l-.045.25L.964,17.66s.069-.116.042-.19a.081.081,0,0,0-.052-.05.281.281,0,0,0-.2.23L.635,17.6l.01-.25-.525-.08a5.072,5.072,0,0,0,.09-2.646,2.9,2.9,0,0,1,.125-.889l.275-.01.08-1.937-.355-.055a10.066,10.066,0,0,1-.07-2.337.044.044,0,0,1,.02,0c.026,0,.087.014.2.109l.044-.08-.159-.09.01-.169.309.169L.71,8.643C.684,8.63.094,8.324.48,7.344A16.637,16.637,0,0,1,.31,1.493l-.1-.055a.007.007,0,0,1,0,0c-.015.078-.043.121-.079.121S.049,1.524,0,1.448L.035.524l.2.025L.215.619.135.644l.034.424.07.01L.335.345A.843.843,0,0,0,.887.571.978.978,0,0,0,1.578.23l.1.2.489.025.115.09.07-.185.07.01.125.17.09-.1.2.01.125.135L3.051.5,3.87.524l.2-.115.025.115.365.045L4.6.364a.845.845,0,0,0,.6.329C5.281.7,5.373.7,5.481.7c.4,0,.885-.031.89-.032a.362.362,0,0,0,.194.1.123.123,0,0,0,.116-.1A.408.408,0,0,0,6.716.533L7,.524a.028.028,0,0,0,.012,0c.032,0,.114-.038.194-.391l.115.24.054-.25.355.035a.15.15,0,0,0,.084.027C7.866.187,7.942.154,8,0a2.3,2.3,0,0,0,.765.165A.673.673,0,0,0,9.247.01a.906.906,0,0,0,.548.173c.03,0,.061,0,.092,0l.057,0c.392,0,.992.328,1,.822a1.3,1.3,0,0,1,.686-.115H11.7a.223.223,0,0,1,.046-.1c.078-.124.2-.312-.046-.47a2,2,0,0,1,.853-.089c.627,0,1.51.06,2.627.178a.1.1,0,0,0,.077-.046c.023-.043.009-.108-.042-.193-.031-.052-.039-.092-.024-.117a.1.1,0,0,1,.084-.033.3.3,0,0,1,.067.008.047.047,0,0,1,.02.007h-.012s.064.415.263.415A.336.336,0,0,0,15.838.3a2.136,2.136,0,0,0,.684.2c.14,0,.212-.055.215-.165l.17.1.489.01a.168.168,0,0,0,.031.118A.7.7,0,0,0,17.9.809h0v0c.02.095.186.931-.071,1.07a17.276,17.276,0,0,1,.1,4.484l-.524.01.205.524a.515.515,0,0,0-.3.257.459.459,0,0,0,.061.4l.006,0a.433.433,0,0,1,.117-.031c.014,0,.022,0,.025.01s-.017.051-.069.1a.2.2,0,0,0,.03.14.325.325,0,0,0,.219.125s-.107.45.027.62a.169.169,0,0,0,.14.065h.018c0,.007-.27.643-.07.789a1.515,1.515,0,0,0-.1.819.115.115,0,0,1-.081.031.241.241,0,0,1-.148-.066s-.073.065-.051.121.114.079.278.079a2.52,2.52,0,0,0,.252-.015l.07,7.379a3.713,3.713,0,0,0-1.469-.476.745.745,0,0,0-.548.191l.684.055-.045.09-.294.01s0,0,0,0a.2.2,0,0,1-.034.137.042.042,0,0,1-.031.014c-.037,0-.088-.044-.151-.129a1.114,1.114,0,0,1-.716.232,1.913,1.913,0,0,1-.846-.222,1.066,1.066,0,0,1-.369.067.825.825,0,0,1-.52-.171h0a.322.322,0,0,0-.057,0,.258.258,0,0,0-.273.22,1.582,1.582,0,0,0-.255-.017,2.7,2.7,0,0,0-.784.122l.044-.16h-.08l-.01.195a.22.22,0,0,1-.215.035l.08-.275a.265.265,0,0,0-.067-.008.183.183,0,0,0-.183.123l.149-.035L12,17.914a.692.692,0,0,1-.442.18.63.63,0,0,1-.348-.111l.445-.035a.164.164,0,0,0,.07-.135s-.125,0-.3,0a5.178,5.178,0,0,0-1.385.1.016.016,0,0,0,0,.016l.135.1-.008,0a1.847,1.847,0,0,1-.542.1.519.519,0,0,1-.293-.072l-.01-.17-.09.01-.149.215a.664.664,0,0,0-.589-.271,1.453,1.453,0,0,0-.44.076l.055.194s-.023,0-.055,0a.424.424,0,0,0-.32.106Zm-3.461-3.2c.028,0,.046.039.046.04-.035.095-.073.15-.111.164a.189.189,0,0,0,.056.009.15.15,0,0,0,.135-.118l.155.095,2.521-.809L3.516,10.974c-.006.015-.926,1.992-1.094,2.512s.043.6.045.6L3.975,15.2l.015-.15.08.01.1-.07.011.165.04-.085C4.241,15.047,4.257,15.033,4.274,15.033Zm5.812-3.141h0l.194.184-.08.1,1.822,1.952c0,.009.379.869,2.253.869.146,0,.3-.005.448-.015A6.532,6.532,0,0,0,15.9,11.544L14.39,10.53l-.879-.08.01-.15.33.135.115.01-.2-.16.09-.1L6.621,5.252H6.6a.523.523,0,0,1-.355-.111.21.21,0,0,1-.055-.164L6,4.968l-.1-.1-.1.08-.055-.055.07-.115-.28-.15.135.17-.07.035L5.3,4.533l.07-.08L4.02,3.505a1,1,0,0,0-.706-.249,2.233,2.233,0,0,0-1.186.418L6.506,8.348a.5.5,0,0,1,.055,0,.383.383,0,0,1,.379.218c.028.071.039.113.031.124a.007.007,0,0,1-.006,0c-.021,0-.078-.07-.094-.092l-.136-.106L8.5,10.409a.189.189,0,0,1-.008-.023,1,1,0,0,1-.066-.256h0c.019,0,.064.069.146.225a3.655,3.655,0,0,0,.739.923l.07-.1-.265-.295s-.079-.093-.065-.122a.018.018,0,0,1,.018-.009A.349.349,0,0,1,9.2,10.8l.344.445a.457.457,0,0,0,.185.469l-.055-.185h0a1.276,1.276,0,0,1,.421.513l-.011-.148Zm3.589-5.8h.011a.115.115,0,0,1,.088.042.5.5,0,0,1,.047.308h.17l.095.125.165-.01.364-2.341-.1,0,.01.09s-.022.1-.05.1-.027-.024-.04-.072c-.044-.172.054-.229.055-.23l.12.035.005-.075-.794-.579a.731.731,0,0,0-.416-.1,1.4,1.4,0,0,0-.417.069c-.547.172-2.254.6-2.272.609l3,2.3.04-.08-.145-.07c-.006-.008-.036-.05-.021-.081S13.623,6.091,13.675,6.091Z" transform="translate(6.606)" fill="#ccc"/>
  </g>
</svg>
