<svg xmlns="http://www.w3.org/2000/svg" width="15.393" height="16.439" viewBox="0 0 15.393 16.439">
  <g id="lol" transform="translate(0)">
    <path id="Path_18319" data-name="Path 18319" d="M306.341,68.9c0,.017-.005.035-.006.052s0,.045,0,.068V82.013c0,.03,0,.06,0,.09s.013.047.051.05.05,0,.075,0H312.8c.028,0,.055,0,.083,0,.043,0,.051.014.039.058q-.027.1-.055.2l-.461,1.612-.348,1.222c-.027.093-.009.1-.127.1h-9.938c-.019-.026,0-.043.007-.059.089-.183.18-.364.269-.547.162-.331.323-.663.486-.993a.393.393,0,0,0,.042-.18q0-4.87,0-9.741,0-1.562,0-3.124a.407.407,0,0,0-.043-.187q-.314-.634-.624-1.269L302,68.966c-.011-.022-.024-.044-.036-.066Z" transform="translate(-301.168 -68.9)" fill="#ccc"/>
    <path id="Path_18320" data-name="Path 18320" d="M1198.974,260.756a.137.137,0,0,0-.017.08c0,.083,0,.166,0,.248,0,.1-.007.205-.017.308q-.017.187-.044.373c-.031.216-.071.43-.121.642a7.5,7.5,0,0,1-1.476,3.006,7.614,7.614,0,0,1-.868.907,7.508,7.508,0,0,1-.7.55l-.057.037s-.005,0-.008,0c-.01-.017,0-.033.007-.049q.2-.716.407-1.432c.045-.157.09-.313.133-.47a.421.421,0,0,1,.091-.17,5.857,5.857,0,0,0,.471-.625,6.309,6.309,0,0,0,.953-2.394c.022-.123.035-.248.051-.372a5.556,5.556,0,0,0,.041-.878c0-.128-.015-.255-.026-.382-.008-.1-.02-.194-.031-.291a5.114,5.114,0,0,0-.095-.54,6.341,6.341,0,0,0-1.119-2.419,6.448,6.448,0,0,0-1.151-1.184,6.539,6.539,0,0,0-2.22-1.158,5.9,5.9,0,0,0-.767-.178c-.123-.02-.247-.04-.371-.056-.074-.01-.149-.013-.224-.019-.122-.008-.245-.018-.367-.023a2.791,2.791,0,0,0-.406.005l-.038,0a3.117,3.117,0,0,0-.42.029c-.131.017-.264.029-.395.05q-.3.048-.588.124c-.027.007-.053.015-.08.021s-.043-.008-.046-.036a.5.5,0,0,1,0-.053v-.971c0-.092,0-.094.093-.114.166-.036.333-.07.5-.093.136-.019.272-.039.409-.056.082-.01.165-.011.247-.019a3.6,3.6,0,0,1,.36-.016c.188,0,.376,0,.564,0,.1,0,.21.016.314.025l.179.018c.094.011.19.019.283.034.153.025.306.054.458.084a7.139,7.139,0,0,1,.962.267,7.71,7.71,0,0,1,3.156,2.084,7.528,7.528,0,0,1,1.054,1.479,7.4,7.4,0,0,1,.542,1.255,6.867,6.867,0,0,1,.25,1.006c.026.156.049.312.07.468.01.069.01.14.019.21.019.157.01.316.017.473a.208.208,0,0,0,.019.1Z" transform="translate(-1183.58 -252.083)" fill="#ccc"/>
    <path id="Path_18321" data-name="Path 18321" d="M1189.444,575.261v-4.539c0-.028,0-.055,0-.083,0-.052.007-.06.056-.075.077-.024.153-.047.231-.067a6.143,6.143,0,0,1,.61-.125c.129-.019.258-.036.387-.046.19-.015.38-.028.57-.026.078,0,.155.008.233.012.1.006.21.008.315.02.156.018.313.04.468.068a5.846,5.846,0,0,1,2.519,1.118,5.762,5.762,0,0,1,1.515,1.744,5.584,5.584,0,0,1,.582,1.51,5.11,5.11,0,0,1,.1.578c.014.127.024.254.032.382q.01.165.01.331c0,.156-.013.31-.025.465a4.972,4.972,0,0,1-.08.573,5.543,5.543,0,0,1-.209.768,5.638,5.638,0,0,1-1.07,1.843c-.059.068-.122.133-.182.2a.112.112,0,0,1-.1.043c-.02,0-.04,0-.06,0h-5.772c-.03,0-.06,0-.09,0a.036.036,0,0,1-.035-.033.3.3,0,0,1,0-.037c0-.025,0-.05,0-.075Z" transform="translate(-1183.55 -567.418)" fill="#ccc"/>
    <path id="Path_18322" data-name="Path 18322" d="M165.2,963.609a7.434,7.434,0,0,1-.01-7.049s.006,0,.007,0a.009.009,0,0,1,0,.007C165.2,958.909,165.2,961.25,165.2,963.609Z" transform="translate(-164.31 -951.456)" fill="#ccc"/>
  </g>
</svg>
