<svg xmlns="http://www.w3.org/2000/svg" xmlns:xlink="http://www.w3.org/1999/xlink" width="56.511" height="56.511" viewBox="0 0 56.511 56.511">
  <defs>
    <linearGradient id="linear-gradient" x1="0.265" x2="0.815" y2="1.25" gradientUnits="objectBoundingBox">
      <stop offset="0" stop-color="#c28337"/>
      <stop offset="1" stop-color="#61421c"/>
    </linearGradient>
    <filter id="tg" x="0" y="0" width="56.511" height="56.511" filterUnits="userSpaceOnUse">
      <feOffset dx="3" dy="3" input="SourceAlpha"/>
      <feGaussianBlur stdDeviation="4" result="blur"/>
      <feFlood flood-opacity="0.161"/>
      <feComposite operator="in" in2="blur"/>
      <feComposite in="SourceGraphic"/>
    </filter>
  </defs>
  <g id="telegram" transform="translate(9 9)">
    <g id="Ellipse_176" data-name="Ellipse 176" transform="translate(2.852 3.268)" fill="#fff" stroke="#707070" stroke-width="1">
      <ellipse cx="13.403" cy="12.997" rx="13.403" ry="12.997" stroke="none"/>
      <ellipse cx="13.403" cy="12.997" rx="12.903" ry="12.497" fill="none"/>
    </g>
    <g id="Group_5145" data-name="Group 5145" transform="translate(0)">
      <g transform="matrix(1, 0, 0, 1, -9, -9)" filter="url(#tg)">
        <path id="tg-2" data-name="tg" d="M29.7,13.44A16.256,16.256,0,1,0,45.951,29.7,16.257,16.257,0,0,0,29.7,13.44ZM37.68,24.577,35.011,37.147c-.2.892-.728,1.108-1.469.688L29.48,34.842,27.521,36.73a1.027,1.027,0,0,1-.813.4H26.7l.289-4.137,7.533-6.8c.325-.289-.073-.453-.505-.164l-9.307,5.861L20.7,30.634c-.867-.275-.892-.867.183-1.292L36.552,23.3c.729-.265,1.363.173,1.127,1.275Z" transform="translate(-4.44 -4.44)" fill="url(#linear-gradient)"/>
      </g>
    </g>
  </g>
</svg>
