<svg xmlns="http://www.w3.org/2000/svg" xmlns:xlink="http://www.w3.org/1999/xlink" width="56.512" height="56.511" viewBox="0 0 56.512 56.511">
  <defs>
    <linearGradient id="linear-gradient" x1="-0.471" y1="-0.716" x2="1.307" y2="1.89" gradientUnits="objectBoundingBox">
      <stop offset="0" stop-color="#cb8939"/>
      <stop offset="1" stop-color="#66451d"/>
    </linearGradient>
    <filter id="Path_18314" x="0" y="0" width="56.512" height="56.511" filterUnits="userSpaceOnUse">
      <feOffset dx="3" dy="3" input="SourceAlpha"/>
      <feGaussianBlur stdDeviation="4" result="blur"/>
      <feFlood flood-opacity="0.161"/>
      <feComposite operator="in" in2="blur"/>
      <feComposite in="SourceGraphic"/>
    </filter>
  </defs>
  <g id="twitch" transform="translate(9 9)">
    <g id="Ellipse_177" data-name="Ellipse 177" transform="translate(2.853 3.268)" fill="#fff" stroke="#707070" stroke-width="1">
      <ellipse cx="13.403" cy="12.997" rx="13.403" ry="12.997" stroke="none"/>
      <ellipse cx="13.403" cy="12.997" rx="12.903" ry="12.497" fill="none"/>
    </g>
    <g id="twitch-2" data-name="twitch">
      <path id="Path_18313" data-name="Path 18313" d="M402.45,307v10.616h3.185v2.477l2.477-2.477h2.832l2.83-2.83V307Zm5.308,6.722h-1.416v-4.245h1.416Zm3.893,0h-1.416v-4.245h1.416Z" transform="translate(-390.441 -297.937)" fill="url(#linear-gradient)"/>
      <g transform="matrix(1, 0, 0, 1, -9, -9)" filter="url(#Path_18314)">
        <path id="Path_18314-2" data-name="Path 18314" d="M29.7,13.44A16.256,16.256,0,1,0,45.952,29.7,16.256,16.256,0,0,0,29.7,13.44ZM38.19,31l-6.372,6.371H28.988l-3.539,3.539V37.367H21.2V24.625l3.539-3.539H38.19Z" transform="translate(-4.44 -4.44)" fill="url(#linear-gradient)"/>
      </g>
    </g>
  </g>
</svg>
