<svg xmlns="http://www.w3.org/2000/svg" xmlns:xlink="http://www.w3.org/1999/xlink" width="56.512" height="56.511" viewBox="0 0 56.512 56.511">
  <defs>
    <linearGradient id="linear-gradient" x1="0.14" y1="0.051" x2="0.95" y2="1" gradientUnits="objectBoundingBox">
      <stop offset="0" stop-color="#cb8939"/>
      <stop offset="1" stop-color="#66451d"/>
    </linearGradient>
    <filter id="twt" x="0" y="0" width="56.512" height="56.511" filterUnits="userSpaceOnUse">
      <feOffset dx="3" dy="3" input="SourceAlpha"/>
      <feGaussianBlur stdDeviation="4" result="blur"/>
      <feFlood flood-opacity="0.161"/>
      <feComposite operator="in" in2="blur"/>
      <feComposite in="SourceGraphic"/>
    </filter>
  </defs>
  <g id="twitter" transform="translate(9 9)">
    <g id="Ellipse_178" data-name="Ellipse 178" transform="translate(2.852 3.268)" fill="#fff" stroke="#707070" stroke-width="1">
      <ellipse cx="13.403" cy="12.997" rx="13.403" ry="12.997" stroke="none"/>
      <ellipse cx="13.403" cy="12.997" rx="12.903" ry="12.497" fill="none"/>
    </g>
    <g transform="matrix(1, 0, 0, 1, -9, -9)" filter="url(#twt)">
      <path id="twt-2" data-name="twt" d="M29.7,13.44A16.256,16.256,0,1,0,45.951,29.7,16.256,16.256,0,0,0,29.7,13.44Zm8.018,13.693c.008.166.011.334.011.5a11.05,11.05,0,0,1-17.011,9.31,7.848,7.848,0,0,0,5.753-1.609,3.89,3.89,0,0,1-3.63-2.7,3.9,3.9,0,0,0,1.755-.067,3.888,3.888,0,0,1-3.118-3.81v-.049a3.859,3.859,0,0,0,1.76.487,3.89,3.89,0,0,1-1.2-5.186,11.03,11.03,0,0,0,8.01,4.059,3.89,3.89,0,0,1,6.621-3.545,7.775,7.775,0,0,0,2.468-.944,3.9,3.9,0,0,1-1.709,2.149,7.749,7.749,0,0,0,2.232-.611,7.877,7.877,0,0,1-1.939,2.012Z" transform="translate(-4.44 -4.44)" fill="url(#linear-gradient)"/>
    </g>
  </g>
</svg>
