<svg xmlns="http://www.w3.org/2000/svg" width="21.4" height="17.578" viewBox="0 0 21.4 17.578">
  <g id="Group_5197" data-name="Group 5197" transform="translate(0)">
    <g id="Group_5136" data-name="Group 5136" transform="translate(0)">
      <path id="Path_18317" data-name="Path 18317" d="M90.3,154.895v-8.321a.139.139,0,0,0-.246-.086l-9.091,11.358a.137.137,0,0,0,.107.225h6.567a.562.562,0,0,0,.449-.225l2.075-2.588a.549.549,0,0,0,.139-.364Zm-21.261.374,6.823,8.534a.573.573,0,0,0,.46.214h6.567A.13.13,0,0,0,83,163.8l-13.85-17.3a.139.139,0,0,0-.246.086v8.321a.666.666,0,0,0,.139.364Zm0,0" transform="translate(-68.9 -146.439)" fill="#ccc"/>
    </g>
  </g>
</svg>
